<svg xmlns="http://www.w3.org/2000/svg" viewBox="0 0 64 64"><path fill="#0d314c" d="M28,5 14,11 13,19 10,21 10,35 15,47 21,53 32,59 48,47 53,34 53,21 49,19 49,11 35,5Z"/><path fill="#9baeb3" d="M47,49 43,51 44,52Z"/><path fill="#9baeb3" d="M23,49 25,51 23,52 23,55 22,54 25,51 27,53Z"/><path fill="#9baeb3" d="M46,42 40,49 34,46 37,49 37,54 33,57 32,56 35,58 34,57 36,55 38,56 37,57 38,53 40,55 41,54 36,50 40,49Z"/><path fill="#9baeb3" d="M22,36 20,37 21,36 23,38 19,43 19,48 16,49 19,52 19,44 24,38Z"/><path fill="#9baeb3" d="M30,30 26,36 28,34 29,37 31,36 28,34 30,31 38,39 36,42 41,44 38,39 40,34 38,39 36,36 37,32 33,34 30,31 32,30Z"/><path fill="#9baeb3" d="M42,27 40,30 36,29 37,28 37,30 40,30Z"/><path fill="#9baeb3" d="M18,26 14,35 16,34Z"/><path fill="#9baeb3" d="M29,22 25,22 23,24 23,26 29,27 27,29 22,29 23,30 21,33 23,30 28,30 27,29 30,26 31,28 32,27 31,25 24,24Z"/><path fill="#9baeb3" d="M50,21 51,37 49,41 51,42 51,35 53,35 52,22Z"/><path fill="#9baeb3" d="M17,21 18,24 19,22Z"/><path fill="#9baeb3" d="M15,13 14,20 11,22 10,36 12,36 11,41 12,39 14,42 12,38 11,23 15,20Z"/><path fill="#9baeb3" d="M16,11 30,6 37,7 48,13 47,18 40,15 36,10 34,12 31,8 29,12 27,10 23,15 17,18 34,19 34,23 39,24 35,24 36,19 29,18 31,17 29,16 29,18 26,17 25,19 17,18 25,14 26,11 28,14 35,16 32,15 36,10 39,14 37,16 45,17 48,21 48,10 46,11 43,9 44,8 42,9 42,7 39,8 39,6 24,6 24,8 21,7 21,9Z"/><path fill="#fcfcfc" d="M30,41 30,44 27,43 32,50 31,52 33,52 31,48 35,47 31,46 34,44 40,45 38,44 39,43 35,44 35,42 30,47 29,45 32,43Z"/><path fill="#fcfcfc" d="M9,40 12,47 21,56 33,61 21,56 19,54 20,53 19,54 14,49 15,48 11,45Z"/><path fill="#fcfcfc" d="M55,34 54,39 53,37 54,41 52,41 53,43 51,43 52,45 50,45 50,48 48,48 49,49 44,54 43,53 42,56 39,56 40,57 35,60 42,56 50,48 54,41Z"/><path fill="#fdfdfd" d="M0,0 0,63 63,63 63,0Z"/><path fill="#ffffff" d="M40,44 31,42 37,44 29,47 32,53 30,48 34,45 40,46 36,45 38,43Z"/></svg>