<svg xmlns="http://www.w3.org/2000/svg" viewBox="0 0 256 256"><path d="M128 12 218 48v74c0 57-34 99-90 123-56-24-90-66-90-123V48z" fill="#154734" stroke="#ffffff" stroke-width="7"/><circle cx="128" cy="87" r="42" fill="#fff"/><circle cx="128" cy="87" r="31" fill="#154734"/><path d="M112 88c10-18 22-27 36-27-9 8-13 17-12 27 10-4 19-3 27 2-10 3-18 9-23 18-4 7-9 13-16 18-8-9-13-20-12-38z" fill="#fff"/><text x="128" y="139" text-anchor="middle" font-family="Arial Black" font-size="35" fill="#fff">MARET</text><path d="M42 151h172l-15 36H57z" fill="#fff"/><text x="128" y="175" text-anchor="middle" font-family="Arial" font-size="16" font-weight="900" fill="#154734">FIGHTING FROGS</text><text x="128" y="210" text-anchor="middle" font-family="Arial" font-size="14" font-weight="700" fill="#fff">WASHINGTON, D.C.</text></svg>